<?xml version="1.0" encoding="UTF-8" standalone="no"?>
<svg
   xmlns:dc="http://purl.org/dc/elements/1.1/"
   xmlns:cc="http://creativecommons.org/ns#"
   xmlns:rdf="http://www.w3.org/1999/02/22-rdf-syntax-ns#"
   xmlns:svg="http://www.w3.org/2000/svg"
   xmlns="http://www.w3.org/2000/svg"
   xmlns:sodipodi="http://sodipodi.sourceforge.net/DTD/sodipodi-0.dtd"
   xmlns:inkscape="http://www.inkscape.org/namespaces/inkscape"
   width="966.73364"
   height="670"
   viewBox="0 0 9.6673364 6.7"
   version="1.1"
   id="svg864"
   sodipodi:docname="flag_dutch.svg"
   inkscape:version="0.92.4 (5da689c313, 2019-01-14)">
  <metadata
     id="metadata870">
    <rdf:RDF>
      <cc:Work
         rdf:about="">
        <dc:format>image/svg+xml</dc:format>
        <dc:type
           rdf:resource="http://purl.org/dc/dcmitype/StillImage" />
        <dc:title></dc:title>
      </cc:Work>
    </rdf:RDF>
  </metadata>
  <defs
     id="defs868" />
  <sodipodi:namedview
     pagecolor="#ffffff"
     bordercolor="#666666"
     borderopacity="1"
     objecttolerance="10"
     gridtolerance="10"
     guidetolerance="10"
     inkscape:pageopacity="0"
     inkscape:pageshadow="2"
     inkscape:window-width="1449"
     inkscape:window-height="771"
     id="namedview866"
     showgrid="false"
     inkscape:zoom="0.47297587"
     inkscape:cx="676.87915"
     inkscape:cy="292.70178"
     inkscape:window-x="375"
     inkscape:window-y="138"
     inkscape:window-maximized="0"
     inkscape:current-layer="svg864"
     fit-margin-top="0"
     fit-margin-left="0"
     fit-margin-right="0"
     fit-margin-bottom="0" />
  <rect
     width="9"
     height="6"
     id="rect858"
     x="0.31733689"
     y="0.34999999"
     style="fill:#21468b" />
  <rect
     width="9"
     height="4"
     id="rect860"
     x="0.31733689"
     y="0.34999999"
     style="fill:#ffffff" />
  <rect
     width="9"
     height="2"
     id="rect862"
     x="0.31733689"
     y="0.34999999"
     style="fill:#ae1c28" />
  <g
     id="g842"
     transform="matrix(0.25948365,0,0,0.24319555,-23.785279,-17.088175)"
     style="fill:#000000">
    <path
       sodipodi:nodetypes="ccccccccscccc"
       inkscape:connector-curvature="0"
       id="path830"
       d="m 112.01165,90.066568 c 2.66968,-1.342147 4.20986,-3.813568 4.07586,-6.748558 -0.0668,-1.00226 -0.4009,-2.338607 -1.80407,-2.605876 -1.40316,-0.267271 -2.93996,-0.200453 -2.93996,-0.200453 v 3.942225 l -3.87541,-6.481286 3.94223,-6.013564 v 4.075862 c 0,0 2.25354,-0.04298 3.57473,0.434311 1.6224,0.586113 3.34666,2.328859 3.74561,4.03225 0.37149,1.764453 -0.15752,4.240112 -0.87818,5.664377 -1.30903,2.295674 -3.27604,3.526249 -5.84079,3.900714 z"
       style="fill:#000000;fill-opacity:1;stroke:none;stroke-width:0.26458332px;stroke-linecap:butt;stroke-linejoin:miter;stroke-opacity:1" />
    <path
       style="fill:#000000;fill-opacity:1;stroke:none;stroke-width:0.26458332px;stroke-linecap:butt;stroke-linejoin:miter;stroke-opacity:1"
       d="m 107.46809,77.972622 c -2.66968,1.342147 -4.20986,3.813568 -4.07586,6.748558 0.0668,1.00226 0.4009,2.338607 1.80407,2.605876 1.40316,0.267271 2.93996,0.200453 2.93996,0.200453 v -3.942225 l 3.87541,6.481286 -3.94223,6.013564 v -4.075862 c 0,0 -2.25354,0.04298 -3.57473,-0.434311 -1.6224,-0.586113 -3.34666,-2.328859 -3.7456,-4.03225 -0.37149,-1.764453 0.15751,-4.240112 0.87817,-5.664377 1.30903,-2.295674 3.27604,-3.526249 5.84079,-3.900714 z"
       id="path838"
       inkscape:connector-curvature="0"
       sodipodi:nodetypes="ccccccccscccc" />
  </g>
  <rect
     style="fill:none;fill-opacity:1;stroke:#333333;stroke-width:0.69999999;stroke-miterlimit:4;stroke-dasharray:none;stroke-dashoffset:0;stroke-opacity:1"
     id="rect5834"
     width="8.9673367"
     height="6"
     x="0.34999999"
     y="0.34999999" />
</svg>
