<?xml version="1.0" encoding="UTF-8" standalone="no"?>
<!-- Created with Inkscape (http://www.inkscape.org/) -->

<svg
   xmlns:dc="http://purl.org/dc/elements/1.1/"
   xmlns:cc="http://creativecommons.org/ns#"
   xmlns:rdf="http://www.w3.org/1999/02/22-rdf-syntax-ns#"
   xmlns:svg="http://www.w3.org/2000/svg"
   xmlns="http://www.w3.org/2000/svg"
   xmlns:sodipodi="http://sodipodi.sourceforge.net/DTD/sodipodi-0.dtd"
   xmlns:inkscape="http://www.inkscape.org/namespaces/inkscape"
   version="1.1"
   id="svg5606"
   xml:space="preserve"
   width="740.88"
   height="149.46667"
   viewBox="0 0 740.88 149.46667"
   sodipodi:docname="ncrlogo_text.svg"
   inkscape:version="0.92.0 r15299"><metadata
     id="metadata5612"><rdf:RDF><cc:Work
         rdf:about=""><dc:format>image/svg+xml</dc:format><dc:type
           rdf:resource="http://purl.org/dc/dcmitype/StillImage" /><dc:title></dc:title></cc:Work></rdf:RDF></metadata><defs
     id="defs5610"><clipPath
       clipPathUnits="userSpaceOnUse"
       id="clipPath5688"><path
         d="m 2970.41,527.457 c -1.21,0.215 -2.43,0.383 -3.64,0.59 v -96.41 l -85.14,107.035 c -41.27,3.141 -83.2,3.297 -125.84,-0.746 -60.91,-3.696 -118.66,-12.821 -170.15,-29.746 L 2998.4,0 h 26.87 v 517.992 c -17.4,3.164 -35.54,6.321 -54.86,9.465 z M 2315.76,86.1719 c -28.22,21.6171 -42.29,63.2381 -42.29,124.9021 v 111.992 c -20.59,-17.035 -41.62,-34.578 -57.71,-48.05 v -63.942 c 0,-4.535 -0.2,-8.781 -0.35,-13.105 V 24.5117 h 222.49 v 29.25 h -25.3 c -36.36,0 -68.62,10.7891 -96.84,32.4102 z M 2939.1,1022.96 c 18.42,-22.65 27.67,-66.124 27.67,-130.437 V 778.629 c 20.36,3.969 35.86,7.527 58.5,9.703 v 104.191 c 0,50.594 4.35,86.29 13.05,107.118 8.69,20.829 20.79,35.849 36.36,45.059 15.58,9.21 46.01,16.72 91.31,22.53 v 29.25 h -354.16 v -29.25 c 59.52,1.07 101.98,-13.71 127.27,-44.27 z m -723.34,-55.335 -0.35,0.43 v 128.425 h 222.49 l 294.43,-370.125 c -2.45,-0.664 -4.64,-1.253 -7.14,-1.933 -79.64,-25.609 -159.99,-58.848 -239.49,-93.203 L 2273.47,892.523 V 535.18 c -20.27,-9.629 -40.13,-19.121 -57.71,-27.547 z M 4265.43,270.035 C 4203.58,198.434 4144.78,147.949 4088.95,118.578 4032.82,89.0508 3971,74.3086 3903.57,74.3086 c -82.22,0 -149.18,20.1602 -200.8,60.4764 -51.62,40.32 -89.57,99.887 -113.84,178.664 -5.75,18.68 -10.77,37.875 -15.16,57.52 -98.87,35.051 -200.35,70.035 -300.91,95.793 9.23,-69.824 31.67,-136.629 67.45,-200.352 48.22,-85.89 116.76,-151.781 205.54,-197.6287 C 3634.63,22.9219 3736.21,0 3850.6,0 c 86.96,0 163.01,14.1094 228.07,42.2891 65.07,28.1914 127.68,73.6409 187.76,136.3709 v 91.32 c -0.34,0.02 -0.66,0.036 -1,0.055 z M 3315.9,767.934 c 9.43,21.504 20.08,42.765 32.31,63.718 53.52,91.703 125.7,162.852 216.61,213.448 90.91,50.59 187.52,75.89 289.73,75.89 75.34,0 154.95,-16.33 238.75,-49.01 48.46,-18.98 79.29,-28.46 92.49,-28.46 16.84,0 31.47,6.2 43.88,18.57 12.41,12.38 20.39,32.02 24.11,58.9 h 30.83 V 749.434 h -30.83 c -23.16,96.961 -66.41,171.273 -129.65,222.933 -63.24,51.663 -134.95,77.473 -215.03,77.473 -66.96,0 -128.3,-19.25 -184.19,-57.707 -55.9,-38.461 -96.69,-88.82 -122.54,-150.996 -19.21,-46.039 -32.68,-95.184 -40.78,-147.231 -0.56,0.207 -1.18,0.442 -1.72,0.641 -56.07,20.648 -171.25,52.961 -228.67,69.476 -5.11,1.473 -10.2,2.61 -15.3,3.911 z M 5556.6,53.7617 v -29.25 H 5219.03 L 4987.89,351.387 c 98.24,27.968 224.73,30.922 267.45,34.125 v 0 l 154.22,-217.125 c 33.75,-46.922 57.7,-76.1682 71.93,-87.7581 21.59,-16.3203 46.65,-25.2891 75.11,-26.8672 z m -705.17,13.4375 c 17.95,-8.9804 51.39,-13.4375 100.4,-13.4375 v -29.25 h -548.64 v 29.25 c 49.57,0 83.17,4.6172 100.8,13.8281 17.63,9.211 30.04,21.2305 37.15,35.9692 7.12,14.742 10.67,51.109 10.67,109.097 v 45.016 c 69.94,1.066 145.04,14.207 189.36,26.203 7.26,1.965 31.28,8.41 62.04,16.711 v -87.93 c 0,-57.988 3.55,-94.465 10.67,-109.496 7.11,-15.0194 19.61,-26.9881 37.55,-35.9608 z m -48.22,971.5708 h 84.59 c 84.82,0 146.4,-19.48 184.59,-58.497 38.18,-39.011 57.31,-99.332 57.31,-181.035 0,-56.406 -10.43,-102.097 -31.22,-137.16 -20.8,-35.058 -49.41,-59.289 -85.78,-72.73 -36.36,-13.438 -91.15,-20.157 -164.43,-20.157 h -45.06 z m -262.07,-20.95 c 7.12,-15.02 10.67,-51.5 10.67,-109.484 V 358.645 c 33.65,-0.661 76.42,4.476 132.74,18.554 39.92,9.981 81.27,22.914 118.66,35.442 v 100.422 h 70.36 l 43.17,-61.059 c 1.02,0.332 2.18,0.719 3.13,1.019 73.14,23.141 173.3,59.997 231.97,78.223 23.69,7.359 48,14.945 71.31,24.297 31.89,13.586 59.77,29.906 81.26,49.223 56.92,51.66 85.38,117 85.38,196.054 0,64.825 -18.97,121.348 -56.92,169.571 -37.94,48.219 -86.96,81.309 -147.04,99.219 -60.08,17.9 -154.95,26.87 -284.59,26.87 h -498.05 v -29.25 c 49.02,0 82.46,-4.46 100.4,-13.44 17.95,-8.97 30.44,-20.95 37.55,-35.97 z"
         id="path5686"
         inkscape:connector-curvature="0" /></clipPath><linearGradient
       x1="0"
       y1="0"
       x2="1"
       y2="0"
       gradientUnits="userSpaceOnUse"
       gradientTransform="matrix(1e-7,1120.99,1120.99,-1e-7,3886,0)"
       spreadMethod="pad"
       id="linearGradient5694"><stop
         style="stop-opacity:1;stop-color:#84d28d"
         offset="0"
         id="stop5690" /><stop
         style="stop-opacity:1;stop-color:#3c6b7b"
         offset="1"
         id="stop5692" /></linearGradient></defs><sodipodi:namedview
     pagecolor="#ffffff"
     bordercolor="#666666"
     borderopacity="1"
     objecttolerance="10"
     gridtolerance="10"
     guidetolerance="10"
     inkscape:pageopacity="0"
     inkscape:pageshadow="2"
     inkscape:window-width="855"
     inkscape:window-height="480"
     id="namedview5608"
     showgrid="false"
     inkscape:zoom="0.49265738"
     inkscape:cx="370.44"
     inkscape:cy="74.733337"
     inkscape:window-x="0"
     inkscape:window-y="0"
     inkscape:window-maximized="0"
     inkscape:current-layer="g5614" /><g
     id="g5614"
     inkscape:groupmode="layer"
     inkscape:label="ink_ext_XXXXXX"
     transform="matrix(1.3333333,0,0,-1.3333333,0,149.46667)"><g
       id="g5616"
       transform="scale(0.1)"><path
         d="M 171.938,851.199 V 1096.4 h 48.171 L 320.461,932.652 V 1096.4 h 45.996 V 851.199 H 316.781 L 217.934,1011.1 V 851.199 h -45.996"
         style="fill:#214578;fill-opacity:1;fill-rule:nonzero;stroke:none"
         id="path5618"
         inkscape:connector-curvature="0" /><path
         d="m 524.012,955.234 c -0.336,13.606 -3.848,23.942 -10.535,31.024 -6.692,7.086 -14.829,10.621 -24.422,10.621 -10.262,0 -18.731,-3.738 -25.422,-11.203 -6.692,-7.469 -9.977,-17.621 -9.867,-30.442 z m -2.676,-47.5 46.832,-7.863 c -6.023,-17.168 -15.531,-30.246 -28.52,-39.223 -12.984,-8.972 -29.242,-13.46 -48.753,-13.46 -30.883,0 -53.747,10.093 -68.575,30.273 -11.707,16.164 -17.562,36.57 -17.562,61.215 0,29.437 7.695,52.492 23.082,69.164 15.387,16.66 34.848,25 58.371,25 26.426,0 47.277,-8.72 62.555,-26.18 15.277,-17.449 22.578,-44.176 21.91,-80.195 H 452.93 c 0.332,-13.942 4.121,-24.777 11.371,-32.531 7.25,-7.75 16.285,-11.625 27.097,-11.625 7.36,0 13.547,2.007 18.563,6.023 5.019,4.012 8.809,10.477 11.375,19.402"
         style="fill:#214578;fill-opacity:1;fill-rule:nonzero;stroke:none"
         id="path5620"
         inkscape:connector-curvature="0" /><path
         d="m 690.43,1028.82 v -37.461 h -32.114 v -71.586 c 0,-14.492 0.313,-22.937 0.922,-25.335 0.61,-2.403 2.008,-4.375 4.18,-5.942 2.176,-1.562 4.828,-2.34 7.945,-2.34 4.352,0 10.649,1.504 18.903,4.516 l 4.011,-36.461 c -10.929,-4.684 -23.304,-7.023 -37.129,-7.023 -8.472,0 -16.117,1.421 -22.914,4.261 -6.8,2.848 -11.793,6.524 -14.968,11.039 -3.18,4.52 -5.379,10.621 -6.61,18.317 -1.004,5.461 -1.504,16.5 -1.504,33.117 v 77.437 h -21.578 v 37.461 h 21.578 v 35.3 l 47.164,27.43 v -62.73 h 32.114"
         style="fill:#214578;fill-opacity:1;fill-rule:nonzero;stroke:none"
         id="path5622"
         inkscape:connector-curvature="0" /><path
         d="m 769.879,1096.4 v -90.15 c 15.16,17.73 33.281,26.59 54.355,26.59 10.817,0 20.575,-2.01 29.27,-6.02 8.699,-4.02 15.246,-9.14 19.652,-15.39 4.41,-6.25 7.418,-13.153 9.035,-20.739 1.614,-7.586 2.422,-19.343 2.422,-35.289 V 851.199 h -46.996 v 93.832 c 0,18.625 -0.894,30.442 -2.676,35.457 -1.781,5.02 -4.933,9.008 -9.453,11.961 -4.515,2.949 -10.175,4.43 -16.972,4.43 -7.805,0 -14.782,-1.899 -20.911,-5.688 -6.128,-3.785 -10.621,-9.507 -13.46,-17.14 -2.844,-7.637 -4.266,-18.926 -4.266,-33.871 v -88.981 h -47 V 1096.4 h 47"
         style="fill:#214578;fill-opacity:1;fill-rule:nonzero;stroke:none"
         id="path5624"
         inkscape:connector-curvature="0" /><path
         d="m 1037.82,955.234 c -0.33,13.606 -3.85,23.942 -10.54,31.024 -6.69,7.086 -14.82,10.621 -24.42,10.621 -10.258,0 -18.727,-3.738 -25.419,-11.203 -6.691,-7.469 -9.976,-17.621 -9.867,-30.442 z m -2.68,-47.5 46.84,-7.863 c -6.02,-17.168 -15.53,-30.246 -28.52,-39.223 -12.99,-8.972 -29.25,-13.46 -48.76,-13.46 -30.88,0 -53.743,10.093 -68.571,30.273 -11.707,16.164 -17.563,36.57 -17.563,61.215 0,29.437 7.696,52.492 23.082,69.164 15.387,16.66 34.848,25 58.372,25 26.43,0 47.28,-8.72 62.55,-26.18 15.28,-17.449 22.58,-44.176 21.92,-80.195 H 966.738 c 0.332,-13.942 4.121,-24.777 11.371,-32.531 7.25,-7.75 16.286,-11.625 27.101,-11.625 7.36,0 13.54,2.007 18.56,6.023 5.02,4.012 8.81,10.477 11.37,19.402"
         style="fill:#214578;fill-opacity:1;fill-rule:nonzero;stroke:none"
         id="path5626"
         inkscape:connector-curvature="0" /><path
         d="m 1167.78,851.199 h -47 v 177.621 h 43.65 v -25.25 c 7.47,11.93 14.2,19.79 20.16,23.58 5.96,3.79 12.73,5.69 20.32,5.69 10.7,0 21.01,-2.95 30.94,-8.86 l -14.55,-40.984 c -7.92,5.129 -15.28,7.695 -22.08,7.695 -6.58,0 -12.15,-1.812 -16.72,-5.433 -4.58,-3.621 -8.17,-10.18 -10.79,-19.656 -2.62,-9.473 -3.93,-29.329 -3.93,-59.543 v -54.86"
         style="fill:#214578;fill-opacity:1;fill-rule:nonzero;stroke:none"
         id="path5628"
         inkscape:connector-curvature="0" /><path
         d="m 1256.09,851.199 h 47 v 245.199 h -47 z"
         style="fill:#214578;fill-opacity:1;fill-rule:nonzero;stroke:none"
         id="path5630"
         inkscape:connector-curvature="0" /><path
         d="m 1449.27,936.5 c -6.02,-2.008 -15.56,-4.406 -28.6,-7.191 -13.05,-2.786 -21.58,-5.52 -25.59,-8.196 -6.13,-4.347 -9.2,-9.867 -9.2,-16.558 0,-6.582 2.45,-12.27 7.36,-17.059 4.91,-4.793 11.15,-7.191 18.73,-7.191 8.47,0 16.56,2.785 24.25,8.363 5.69,4.238 9.43,9.422 11.21,15.551 1.23,4.015 1.84,11.652 1.84,22.918 z m -62.89,38.137 -42.65,7.691 c 4.79,17.168 13.05,29.882 24.76,38.132 11.7,8.26 29.1,12.38 52.18,12.38 20.96,0 36.57,-2.48 46.83,-7.44 10.26,-4.96 17.48,-11.27 21.66,-18.9 4.18,-7.637 6.27,-21.66 6.27,-42.066 l -0.5,-54.86 c 0,-15.613 0.75,-27.121 2.26,-34.539 1.5,-7.418 4.32,-15.363 8.44,-23.836 h -46.49 c -1.23,3.121 -2.74,7.754 -4.52,13.883 -0.78,2.785 -1.34,4.625 -1.67,5.52 -8.03,-7.801 -16.62,-13.657 -25.76,-17.563 -9.14,-3.902 -18.9,-5.851 -29.27,-5.851 -18.29,0 -32.7,4.957 -43.23,14.882 -10.54,9.93 -15.81,22.473 -15.81,37.633 0,10.035 2.4,18.985 7.19,26.848 4.79,7.859 11.52,13.879 20.16,18.062 8.64,4.18 21.1,7.836 37.38,10.953 21.97,4.125 37.19,7.973 45.66,11.543 v 4.684 c 0,9.031 -2.23,15.469 -6.69,19.316 -4.46,3.848 -12.88,5.77 -25.26,5.77 -8.36,0 -14.88,-1.645 -19.57,-4.934 -4.68,-3.285 -8.47,-9.054 -11.37,-17.308"
         style="fill:#214578;fill-opacity:1;fill-rule:nonzero;stroke:none"
         id="path5632"
         inkscape:connector-curvature="0" /><path
         d="m 1703.33,851.199 h -47 v 90.653 c 0,19.175 -1,31.586 -3.01,37.214 -2.01,5.629 -5.27,10.012 -9.78,13.129 -4.52,3.121 -9.95,4.684 -16.31,4.684 -8.14,0 -15.45,-2.231 -21.91,-6.688 -6.47,-4.461 -10.9,-10.371 -13.3,-17.73 -2.4,-7.359 -3.59,-20.965 -3.59,-40.813 v -80.449 h -47 v 177.621 h 43.65 v -26.09 c 15.5,20.07 35.02,30.11 58.54,30.11 10.37,0 19.85,-1.86 28.43,-5.6 8.59,-3.74 15.08,-8.51 19.49,-14.3 4.41,-5.8 7.47,-12.38 9.2,-19.741 1.73,-7.359 2.59,-17.894 2.59,-31.609 V 851.199"
         style="fill:#214578;fill-opacity:1;fill-rule:nonzero;stroke:none"
         id="path5634"
         inkscape:connector-curvature="0" /><path
         d="m 1788.46,943.859 c 0,-18.957 2.62,-32.671 7.87,-41.144 7.58,-12.27 18.17,-18.399 31.77,-18.399 10.82,0 20.02,4.602 27.6,13.801 7.59,9.199 11.37,22.938 11.37,41.227 0,20.406 -3.68,35.097 -11.03,44.074 -7.36,8.973 -16.79,13.461 -28.27,13.461 -11.15,0 -20.49,-4.43 -28.02,-13.297 -7.52,-8.863 -11.29,-22.102 -11.29,-39.723 z m 125.45,-92.66 h -43.66 v 26.094 c -7.25,-10.145 -15.8,-17.703 -25.67,-22.664 -9.87,-4.957 -19.82,-7.441 -29.86,-7.441 -20.4,0 -37.88,8.218 -52.43,24.667 -14.55,16.45 -21.83,39.391 -21.83,68.829 0,30.105 7.09,52.992 21.24,68.656 14.16,15.66 32.06,23.5 53.69,23.5 19.85,0 37.02,-8.25 51.52,-24.75 v 88.31 h 47 V 851.199"
         style="fill:#214578;fill-opacity:1;fill-rule:nonzero;stroke:none"
         id="path5636"
         inkscape:connector-curvature="0" /><path
         d="m 1943.68,901.879 47.16,7.191 c 2.01,-9.14 6.08,-16.082 12.21,-20.824 6.13,-4.738 14.72,-7.105 25.76,-7.105 12.15,0 21.3,2.23 27.43,6.687 4.12,3.121 6.19,7.301 6.19,12.547 0,3.57 -1.11,6.523 -3.35,8.863 -2.34,2.235 -7.58,4.289 -15.72,6.188 -37.91,8.363 -61.94,16 -72.09,22.914 -14.04,9.594 -21.07,22.914 -21.07,39.976 0,15.387 6.08,28.324 18.23,38.804 12.15,10.48 31,15.72 56.53,15.72 24.31,0 42.38,-3.96 54.19,-11.88 11.82,-7.91 19.97,-19.62 24.42,-35.12 l -44.32,-8.195 c -1.9,6.918 -5.49,12.21 -10.79,15.89 -5.29,3.68 -12.85,5.52 -22.66,5.52 -12.38,0 -21.24,-1.731 -26.59,-5.188 -3.57,-2.449 -5.36,-5.625 -5.36,-9.531 0,-3.344 1.57,-6.188 4.69,-8.531 4.24,-3.117 18.87,-7.528 43.9,-13.211 25.03,-5.688 42.51,-12.653 52.44,-20.906 9.81,-8.364 14.71,-20.012 14.71,-34.958 0,-16.285 -6.79,-30.273 -20.4,-41.984 -13.61,-11.707 -33.73,-17.558 -60.38,-17.558 -24.19,0 -43.34,4.906 -57.45,14.718 -14.11,9.809 -23.33,23.141 -27.68,39.973"
         style="fill:#214578;fill-opacity:1;fill-rule:nonzero;stroke:none"
         id="path5638"
         inkscape:connector-curvature="0" /><path
         d="m 671.195,530.305 48.004,-15.219 c -7.359,-26.762 -19.594,-46.641 -36.715,-59.629 -17.117,-12.988 -38.828,-19.484 -65.144,-19.484 -32.555,0 -59.317,11.121 -80.281,33.367 -20.965,22.246 -31.446,52.66 -31.446,91.238 0,40.809 10.539,72.504 31.614,95.082 21.074,22.582 48.777,33.871 83.125,33.871 29.996,0 54.359,-8.863 73.089,-26.593 11.149,-10.477 19.512,-25.532 25.09,-45.161 L 669.523,606.07 c -2.902,12.711 -8.949,22.746 -18.144,30.106 -9.199,7.359 -20.383,11.039 -33.535,11.039 -18.172,0 -32.926,-6.524 -44.242,-19.567 -11.313,-13.046 -16.973,-34.179 -16.973,-63.39 0,-31 5.574,-53.078 16.723,-66.235 11.148,-13.156 25.648,-19.738 43.488,-19.738 13.152,0 24.476,4.184 33.953,12.547 9.473,8.363 16.281,21.516 20.402,39.473"
         style="fill:#214578;fill-opacity:1;fill-rule:nonzero;stroke:none"
         id="path5640"
         inkscape:connector-curvature="0" /><path
         d="m 866.887,544.188 c -0.336,13.605 -3.848,23.941 -10.539,31.023 -6.692,7.086 -14.828,10.621 -24.418,10.621 -10.262,0 -18.735,-3.738 -25.422,-11.203 -6.692,-7.469 -9.977,-17.621 -9.871,-30.441 z m -2.676,-47.504 46.832,-7.86 c -6.023,-17.168 -15.531,-30.25 -28.52,-39.222 -12.988,-8.973 -29.246,-13.461 -48.753,-13.461 -30.883,0 -53.747,10.093 -68.575,30.269 -11.711,16.168 -17.562,36.574 -17.562,61.219 0,29.437 7.691,52.492 23.082,69.16 15.387,16.664 34.848,25.004 58.371,25.004 26.426,0 47.273,-8.723 62.555,-26.176 15.277,-17.453 22.578,-44.179 21.91,-80.199 h -117.75 c 0.336,-13.941 4.125,-24.777 11.375,-32.531 7.25,-7.75 16.281,-11.625 27.094,-11.625 7.359,0 13.55,2.008 18.566,6.023 5.019,4.012 8.805,10.477 11.375,19.399"
         style="fill:#214578;fill-opacity:1;fill-rule:nonzero;stroke:none"
         id="path5642"
         inkscape:connector-curvature="0" /><path
         d="m 1113.42,440.152 h -47 v 90.653 c 0,19.175 -1,31.586 -3.01,37.215 -2.01,5.628 -5.27,10.011 -9.78,13.128 -4.52,3.122 -9.96,4.684 -16.31,4.684 -8.14,0 -15.45,-2.23 -21.91,-6.687 -6.47,-4.461 -10.9,-10.372 -13.3,-17.731 -2.399,-7.359 -3.594,-20.965 -3.594,-40.812 v -80.45 h -47 v 177.625 h 43.656 v -26.089 c 15.498,20.07 35.018,30.105 58.538,30.105 10.37,0 19.85,-1.863 28.43,-5.602 8.59,-3.742 15.08,-8.507 19.49,-14.3 4.41,-5.797 7.47,-12.379 9.2,-19.739 1.73,-7.359 2.59,-17.894 2.59,-31.609 V 440.152"
         style="fill:#214578;fill-opacity:1;fill-rule:nonzero;stroke:none"
         id="path5644"
         inkscape:connector-curvature="0" /><path
         d="m 1242.54,617.777 v -37.464 h -32.11 v -71.586 c 0,-14.493 0.31,-22.938 0.92,-25.336 0.61,-2.403 2.01,-4.375 4.18,-5.942 2.17,-1.562 4.83,-2.34 7.94,-2.34 4.35,0 10.65,1.504 18.9,4.516 l 4.02,-36.461 c -10.93,-4.684 -23.31,-7.023 -37.13,-7.023 -8.47,0 -16.12,1.422 -22.92,4.261 -6.8,2.844 -11.79,6.524 -14.97,11.039 -3.17,4.52 -5.37,10.622 -6.6,18.317 -1.01,5.461 -1.51,16.5 -1.51,33.117 v 77.438 h -21.57 v 37.464 h 21.57 v 35.293 l 47.17,27.43 v -62.723 h 32.11"
         style="fill:#214578;fill-opacity:1;fill-rule:nonzero;stroke:none"
         id="path5646"
         inkscape:connector-curvature="0" /><path
         d="m 1320.15,440.152 h -47 v 177.625 h 43.65 v -25.254 c 7.47,11.934 14.2,19.793 20.16,23.582 5.96,3.79 12.73,5.688 20.32,5.688 10.7,0 21.01,-2.953 30.94,-8.863 l -14.55,-40.981 c -7.92,5.129 -15.28,7.696 -22.08,7.696 -6.58,0 -12.15,-1.817 -16.72,-5.438 -4.58,-3.621 -8.17,-10.176 -10.79,-19.652 -2.62,-9.473 -3.93,-29.328 -3.93,-59.543 v -54.86"
         style="fill:#214578;fill-opacity:1;fill-rule:nonzero;stroke:none"
         id="path5648"
         inkscape:connector-curvature="0" /><path
         d="m 1514,544.188 c -0.34,13.605 -3.85,23.941 -10.54,31.023 -6.69,7.086 -14.83,10.621 -24.42,10.621 -10.26,0 -18.73,-3.738 -25.42,-11.203 -6.69,-7.469 -9.98,-17.621 -9.87,-30.441 z m -2.68,-47.504 46.83,-7.86 c -6.02,-17.168 -15.53,-30.25 -28.51,-39.222 -12.99,-8.973 -29.25,-13.461 -48.76,-13.461 -30.88,0 -53.75,10.093 -68.57,30.269 -11.71,16.168 -17.57,36.574 -17.57,61.219 0,29.437 7.7,52.492 23.09,69.16 15.38,16.664 34.84,25.004 58.37,25.004 26.42,0 47.27,-8.723 62.55,-26.176 15.28,-17.453 22.58,-44.179 21.91,-80.199 h -117.75 c 0.34,-13.941 4.13,-24.777 11.38,-32.531 7.25,-7.75 16.28,-11.625 27.09,-11.625 7.36,0 13.55,2.008 18.57,6.023 5.02,4.012 8.8,10.477 11.37,19.399"
         style="fill:#214578;fill-opacity:1;fill-rule:nonzero;stroke:none"
         id="path5650"
         inkscape:connector-curvature="0" /><path
         d="m 1673.56,617.777 h 26.09 v 13.383 c 0,14.942 1.59,26.09 4.77,33.449 3.18,7.36 9.03,13.356 17.56,17.981 8.53,4.625 19.32,6.941 32.36,6.941 13.38,0 26.49,-2.008 39.31,-6.019 l -6.36,-32.785 c -7.46,1.781 -14.66,2.675 -21.57,2.675 -6.8,0 -11.69,-1.586 -14.64,-4.765 -2.95,-3.176 -4.43,-9.282 -4.43,-18.313 v -12.547 h 35.12 v -36.961 h -35.12 V 440.152 h -47 v 140.664 h -26.09 v 36.961"
         style="fill:#214578;fill-opacity:1;fill-rule:nonzero;stroke:none"
         id="path5652"
         inkscape:connector-curvature="0" /><path
         d="m 1845.5,528.965 c 0,-17.621 4.18,-31.11 12.54,-40.477 8.37,-9.363 18.68,-14.047 30.94,-14.047 12.27,0 22.56,4.684 30.86,14.047 8.31,9.367 12.46,22.977 12.46,40.813 0,17.394 -4.15,30.773 -12.46,40.14 -8.3,9.368 -18.59,14.051 -30.86,14.051 -12.26,0 -22.57,-4.683 -30.94,-14.051 -8.36,-9.367 -12.54,-22.855 -12.54,-40.476 z m -48.17,2.512 c 0,15.613 3.85,30.714 11.54,45.324 7.69,14.609 18.59,25.758 32.7,33.453 14.11,7.691 29.85,11.539 47.25,11.539 26.87,0 48.89,-8.723 66.06,-26.176 17.17,-17.453 25.76,-39.496 25.76,-66.148 0,-26.871 -8.67,-49.149 -26.01,-66.821 -17.33,-17.671 -39.16,-26.507 -65.48,-26.507 -16.28,0 -31.8,3.679 -46.58,11.039 -14.78,7.355 -26.01,18.144 -33.7,32.363 -7.69,14.215 -11.54,31.527 -11.54,51.934"
         style="fill:#214578;fill-opacity:1;fill-rule:nonzero;stroke:none"
         id="path5654"
         inkscape:connector-curvature="0" /><path
         d="m 2062.43,440.152 h -47 v 177.625 h 43.65 v -25.254 c 7.47,11.934 14.2,19.793 20.16,23.582 5.96,3.79 12.73,5.688 20.32,5.688 10.7,0 21.02,-2.953 30.94,-8.863 l -14.55,-40.981 c -7.92,5.129 -15.28,7.696 -22.08,7.696 -6.58,0 -12.15,-1.817 -16.72,-5.438 -4.58,-3.621 -8.17,-10.176 -10.79,-19.652 -2.62,-9.473 -3.93,-29.328 -3.93,-59.543 v -54.86"
         style="fill:#214578;fill-opacity:1;fill-rule:nonzero;stroke:none"
         id="path5656"
         inkscape:connector-curvature="0" /><path
         d="m 49.5078,170.605 h 36.6289 c 23.7503,0 38.5783,1.004 44.4923,3.008 5.91,2.008 10.535,5.461 13.879,10.371 3.347,4.911 5.019,11.039 5.019,18.399 0,8.254 -2.199,14.91 -6.605,19.988 -4.41,5.074 -10.621,8.277 -18.652,9.617 -4.012,0.559 -16.055,0.836 -36.1255,0.836 H 49.5078 Z M 0,29.1094 V 274.301 h 104.199 c 26.203,0 45.242,-2.199 57.117,-6.606 11.875,-4.406 21.387,-12.234 28.52,-23.5 7.133,-11.261 10.703,-24.14 10.703,-38.636 0,-18.399 -5.41,-33.59 -16.223,-45.575 C 173.504,148 157.328,140.438 135.813,137.32 c 10.703,-6.246 19.542,-13.105 26.507,-20.57 6.969,-7.469 16.368,-20.7383 28.184,-39.8086 l 29.937,-47.832 H 161.234 L 125.441,82.4609 C 112.73,101.531 104.031,113.539 99.3516,118.5 c -4.6836,4.965 -9.6446,8.367 -14.8868,10.207 -5.246,1.84 -13.5468,2.758 -24.9218,2.758 H 49.5078 V 29.1094 H 0"
         style="fill:#214578;fill-opacity:1;fill-rule:nonzero;stroke:none"
         id="path5658"
         inkscape:connector-curvature="0" /><path
         d="M 246.867,29.1094 V 206.73 h 47 V 29.1094 Z m 0,201.7066 v 43.485 h 47 v -43.485 h -47"
         style="fill:#214578;fill-opacity:1;fill-rule:nonzero;stroke:none"
         id="path5660"
         inkscape:connector-curvature="0" /><path
         d="M 390.875,29.1094 319.293,206.73 h 49.34 l 33.449,-90.652 9.699,-30.2694 c 2.571,7.6914 4.184,12.7695 4.852,15.2224 1.566,5.008 3.238,10.028 5.019,15.047 l 33.786,90.652 h 48.335 L 433.191,29.1094 h -42.316"
         style="fill:#214578;fill-opacity:1;fill-rule:nonzero;stroke:none"
         id="path5662"
         inkscape:connector-curvature="0" /><path
         d="m 638.078,133.141 c -0.332,13.605 -3.844,23.941 -10.535,31.023 -6.691,7.086 -14.828,10.621 -24.418,10.621 -10.262,0 -18.734,-3.738 -25.426,-11.207 -6.687,-7.469 -9.976,-17.617 -9.867,-30.437 z m -2.676,-47.5004 46.832,-7.8593 C 676.215,60.6094 666.707,47.5313 653.719,38.5586 640.73,29.5781 624.473,25.0898 604.965,25.0898 c -30.887,0 -53.75,10.1016 -68.574,30.2696 -11.711,16.1719 -17.563,36.582 -17.563,61.2186 0,29.438 7.692,52.496 23.078,69.164 15.391,16.664 34.852,25.004 58.375,25.004 26.426,0 47.274,-8.723 62.555,-26.176 15.277,-17.453 22.578,-44.179 21.906,-80.199 H 566.996 c 0.336,-13.9413 4.121,-24.7812 11.375,-32.5312 7.25,-7.75 16.281,-11.621 27.094,-11.621 7.359,0 13.547,2 18.566,6.0195 5.016,4.0117 8.805,10.4805 11.371,19.4023"
         style="fill:#214578;fill-opacity:1;fill-rule:nonzero;stroke:none"
         id="path5664"
         inkscape:connector-curvature="0" /><path
         d="m 768.039,29.1094 h -47 V 206.73 h 43.652 v -25.253 c 7.469,11.933 14.192,19.793 20.157,23.582 5.961,3.789 12.734,5.687 20.32,5.687 10.707,0 21.016,-2.953 30.941,-8.863 l -14.55,-40.981 c -7.918,5.129 -15.278,7.696 -22.079,7.696 -6.582,0 -12.148,-1.817 -16.722,-5.438 -4.574,-3.621 -8.172,-10.176 -10.789,-19.652 -2.617,-9.473 -3.93,-29.328 -3.93,-59.5392 V 29.1094"
         style="fill:#214578;fill-opacity:1;fill-rule:nonzero;stroke:none"
         id="path5666"
         inkscape:connector-curvature="0" /><path
         d="m 934.961,79.7813 47.164,7.1992 c 2.008,-9.1407 6.078,-16.0899 12.211,-20.8321 6.124,-4.7382 14.714,-7.1093 25.754,-7.1093 12.15,0 21.3,2.2422 27.43,6.6914 4.12,3.1211 6.19,7.3086 6.19,12.5508 0,3.5703 -1.11,6.5195 -3.34,8.8593 -2.35,2.2383 -7.59,4.2891 -15.73,6.1875 -37.906,8.3629 -61.941,15.9999 -72.085,22.9219 -14.047,9.59 -21.075,22.91 -21.075,39.969 0,15.39 6.083,28.328 18.235,38.804 12.148,10.481 31,15.723 56.535,15.723 24.31,0 42.37,-3.957 54.19,-11.875 11.81,-7.922 19.96,-19.629 24.42,-35.125 l -44.33,-8.195 c -1.9,6.918 -5.49,12.211 -10.79,15.89 -5.29,3.68 -12.85,5.52 -22.66,5.52 -12.38,0 -21.24,-1.731 -26.592,-5.188 -3.57,-2.449 -5.351,-5.625 -5.351,-9.531 0,-3.347 1.562,-6.187 4.683,-8.531 4.239,-3.117 18.87,-7.527 43.9,-13.215 25.03,-5.683 42.51,-12.652 52.44,-20.906 9.81,-8.36 14.72,-20.0119 14.72,-34.9611 0,-16.2773 -6.8,-30.2695 -20.41,-41.9805 -13.61,-11.6992 -33.73,-17.5586 -60.38,-17.5586 -24.192,0 -43.344,4.9102 -57.449,14.7188 -14.11,9.8125 -23.332,23.1406 -27.68,39.9727"
         style="fill:#214578;fill-opacity:1;fill-rule:nonzero;stroke:none"
         id="path5668"
         inkscape:connector-curvature="0" /><path
         d="m 1223.47,206.73 v -37.464 h -32.11 V 97.6797 c 0,-14.4883 0.31,-22.9414 0.92,-25.3399 0.61,-2.3984 2.01,-4.371 4.18,-5.9414 2.18,-1.5586 4.83,-2.3398 7.95,-2.3398 4.35,0 10.64,1.5117 18.9,4.5234 l 4.01,-36.4609 c -10.93,-4.6914 -23.31,-7.0313 -37.13,-7.0313 -8.47,0 -16.11,1.4219 -22.91,4.2696 -6.8,2.8398 -11.79,6.5195 -14.97,11.039 -3.18,4.5118 -5.38,10.6211 -6.61,18.3125 -1,5.461 -1.5,16.5 -1.5,33.1172 v 77.4379 h -21.58 v 37.464 h 21.58 v 35.293 l 47.16,27.43 V 206.73 h 32.11"
         style="fill:#214578;fill-opacity:1;fill-rule:nonzero;stroke:none"
         id="path5670"
         inkscape:connector-curvature="0" /><path
         d="m 1373,29.1094 v 26.5898 c -6.46,-9.4804 -14.97,-16.9492 -25.51,-22.4101 -10.53,-5.461 -21.65,-8.1993 -33.36,-8.1993 -11.94,0 -22.64,2.6211 -32.12,7.8594 -9.47,5.25 -16.33,12.6094 -20.57,22.0821 -4.24,9.4804 -6.35,22.5781 -6.35,39.3085 V 206.73 h 46.99 v -81.621 c 0,-24.98 0.87,-40.277 2.6,-45.9098 1.73,-5.6289 4.87,-10.0976 9.45,-13.3789 4.57,-3.289 10.37,-4.9414 17.39,-4.9414 8.03,0 15.22,2.1992 21.58,6.6094 6.35,4.4101 10.7,9.8711 13.04,16.3906 2.35,6.5195 3.52,22.5001 3.52,47.9221 v 74.929 h 46.99 V 29.1094 H 1373"
         style="fill:#214578;fill-opacity:1;fill-rule:nonzero;stroke:none"
         id="path5672"
         inkscape:connector-curvature="0" /><path
         d="m 1502.79,121.766 c 0,-18.957 2.62,-32.6762 7.86,-41.1449 7.59,-12.2695 18.17,-18.4023 31.78,-18.4023 10.81,0 20.01,4.6015 27.6,13.8007 7.58,9.1993 11.37,22.9414 11.37,41.2305 0,20.406 -3.68,35.098 -11.04,44.07 -7.36,8.977 -16.78,13.465 -28.26,13.465 -11.15,0 -20.49,-4.433 -28.02,-13.297 -7.53,-8.863 -11.29,-22.101 -11.29,-39.722 z m 125.44,-92.6566 h -43.65 v 26.0898 c -7.25,-10.1484 -15.81,-17.7109 -25.67,-22.6679 -9.87,-4.9532 -19.82,-7.4415 -29.86,-7.4415 -20.4,0 -37.88,8.2188 -52.43,24.6719 -14.56,16.4492 -21.83,39.3867 -21.83,68.8283 0,30.101 7.08,52.992 21.24,68.656 14.16,15.664 32.06,23.5 53.69,23.5 19.84,0 37.02,-8.254 51.51,-24.754 v 88.309 h 47 V 29.1094"
         style="fill:#214578;fill-opacity:1;fill-rule:nonzero;stroke:none"
         id="path5674"
         inkscape:connector-curvature="0" /><path
         d="M 1674.56,29.1094 V 206.73 h 47 V 29.1094 Z m 0,201.7066 v 43.485 h 47 v -43.485 h -47"
         style="fill:#214578;fill-opacity:1;fill-rule:nonzero;stroke:none"
         id="path5676"
         inkscape:connector-curvature="0" /><path
         d="m 1875.27,133.141 c -0.33,13.605 -3.85,23.941 -10.54,31.023 -6.69,7.086 -14.82,10.621 -24.42,10.621 -10.26,0 -18.73,-3.738 -25.42,-11.207 -6.69,-7.469 -9.98,-17.617 -9.87,-30.437 z m -2.68,-47.5004 46.84,-7.8593 c -6.03,-17.1719 -15.53,-30.25 -28.52,-39.2227 -12.99,-8.9805 -29.25,-13.4688 -48.76,-13.4688 -30.88,0 -53.74,10.1016 -68.57,30.2696 -11.71,16.1719 -17.56,36.582 -17.56,61.2186 0,29.438 7.69,52.496 23.08,69.164 15.39,16.664 34.85,25.004 58.37,25.004 26.43,0 47.27,-8.723 62.55,-26.176 15.28,-17.453 22.58,-44.179 21.91,-80.199 h -117.74 c 0.33,-13.9413 4.12,-24.7812 11.37,-32.5312 7.25,-7.75 16.28,-11.621 27.09,-11.621 7.36,0 13.55,2 18.57,6.0195 5.02,4.0117 8.81,10.4805 11.37,19.4023"
         style="fill:#214578;fill-opacity:1;fill-rule:nonzero;stroke:none"
         id="path5678"
         inkscape:connector-curvature="0" /><path
         d="m 1943.68,79.7813 47.16,7.1992 c 2.01,-9.1407 6.08,-16.0899 12.21,-20.8321 6.13,-4.7382 14.72,-7.1093 25.76,-7.1093 12.15,0 21.3,2.2422 27.43,6.6914 4.12,3.1211 6.19,7.3086 6.19,12.5508 0,3.5703 -1.11,6.5195 -3.35,8.8593 -2.34,2.2383 -7.58,4.2891 -15.72,6.1875 -37.91,8.3629 -61.94,15.9999 -72.09,22.9219 -14.04,9.59 -21.07,22.91 -21.07,39.969 0,15.39 6.08,28.328 18.23,38.804 12.15,10.481 31,15.723 56.53,15.723 24.31,0 42.38,-3.957 54.19,-11.875 11.82,-7.922 19.97,-19.629 24.42,-35.125 l -44.32,-8.195 c -1.9,6.918 -5.49,12.211 -10.79,15.89 -5.29,3.68 -12.85,5.52 -22.66,5.52 -12.38,0 -21.24,-1.731 -26.59,-5.188 -3.57,-2.449 -5.36,-5.625 -5.36,-9.531 0,-3.347 1.57,-6.187 4.69,-8.531 4.24,-3.117 18.87,-7.527 43.9,-13.215 25.03,-5.683 42.51,-12.652 52.44,-20.906 9.81,-8.36 14.71,-20.0119 14.71,-34.9611 0,-16.2773 -6.79,-30.2695 -20.4,-41.9805 -13.61,-11.6992 -33.73,-17.5586 -60.38,-17.5586 -24.19,0 -43.34,4.9102 -57.45,14.7188 -14.11,9.8125 -23.33,23.1406 -27.68,39.9727"
         style="fill:#214578;fill-opacity:1;fill-rule:nonzero;stroke:none"
         id="path5680"
         inkscape:connector-curvature="0" /><g
         id="g5682"><g
           id="g5684"
           clip-path="url(#clipPath5688)"><path
             d="m 2970.41,527.457 c -1.21,0.215 -2.43,0.383 -3.64,0.59 v -96.41 l -85.14,107.035 c -41.27,3.141 -83.2,3.297 -125.84,-0.746 -60.91,-3.696 -118.66,-12.821 -170.15,-29.746 L 2998.4,0 h 26.87 v 517.992 c -17.4,3.164 -35.54,6.321 -54.86,9.465 z M 2315.76,86.1719 c -28.22,21.6171 -42.29,63.2381 -42.29,124.9021 v 111.992 c -20.59,-17.035 -41.62,-34.578 -57.71,-48.05 v -63.942 c 0,-4.535 -0.2,-8.781 -0.35,-13.105 V 24.5117 h 222.49 v 29.25 h -25.3 c -36.36,0 -68.62,10.7891 -96.84,32.4102 z M 2939.1,1022.96 c 18.42,-22.65 27.67,-66.124 27.67,-130.437 V 778.629 c 20.36,3.969 35.86,7.527 58.5,9.703 v 104.191 c 0,50.594 4.35,86.29 13.05,107.118 8.69,20.829 20.79,35.849 36.36,45.059 15.58,9.21 46.01,16.72 91.31,22.53 v 29.25 h -354.16 v -29.25 c 59.52,1.07 101.98,-13.71 127.27,-44.27 z m -723.34,-55.335 -0.35,0.43 v 128.425 h 222.49 l 294.43,-370.125 c -2.45,-0.664 -4.64,-1.253 -7.14,-1.933 -79.64,-25.609 -159.99,-58.848 -239.49,-93.203 L 2273.47,892.523 V 535.18 c -20.27,-9.629 -40.13,-19.121 -57.71,-27.547 z M 4265.43,270.035 C 4203.58,198.434 4144.78,147.949 4088.95,118.578 4032.82,89.0508 3971,74.3086 3903.57,74.3086 c -82.22,0 -149.18,20.1602 -200.8,60.4764 -51.62,40.32 -89.57,99.887 -113.84,178.664 -5.75,18.68 -10.77,37.875 -15.16,57.52 -98.87,35.051 -200.35,70.035 -300.91,95.793 9.23,-69.824 31.67,-136.629 67.45,-200.352 48.22,-85.89 116.76,-151.781 205.54,-197.6287 C 3634.63,22.9219 3736.21,0 3850.6,0 c 86.96,0 163.01,14.1094 228.07,42.2891 65.07,28.1914 127.68,73.6409 187.76,136.3709 v 91.32 c -0.34,0.02 -0.66,0.036 -1,0.055 z M 3315.9,767.934 c 9.43,21.504 20.08,42.765 32.31,63.718 53.52,91.703 125.7,162.852 216.61,213.448 90.91,50.59 187.52,75.89 289.73,75.89 75.34,0 154.95,-16.33 238.75,-49.01 48.46,-18.98 79.29,-28.46 92.49,-28.46 16.84,0 31.47,6.2 43.88,18.57 12.41,12.38 20.39,32.02 24.11,58.9 h 30.83 V 749.434 h -30.83 c -23.16,96.961 -66.41,171.273 -129.65,222.933 -63.24,51.663 -134.95,77.473 -215.03,77.473 -66.96,0 -128.3,-19.25 -184.19,-57.707 -55.9,-38.461 -96.69,-88.82 -122.54,-150.996 -19.21,-46.039 -32.68,-95.184 -40.78,-147.231 -0.56,0.207 -1.18,0.442 -1.72,0.641 -56.07,20.648 -171.25,52.961 -228.67,69.476 -5.11,1.473 -10.2,2.61 -15.3,3.911 z M 5556.6,53.7617 v -29.25 H 5219.03 L 4987.89,351.387 c 98.24,27.968 224.73,30.922 267.45,34.125 v 0 l 154.22,-217.125 c 33.75,-46.922 57.7,-76.1682 71.93,-87.7581 21.59,-16.3203 46.65,-25.2891 75.11,-26.8672 z m -705.17,13.4375 c 17.95,-8.9804 51.39,-13.4375 100.4,-13.4375 v -29.25 h -548.64 v 29.25 c 49.57,0 83.17,4.6172 100.8,13.8281 17.63,9.211 30.04,21.2305 37.15,35.9692 7.12,14.742 10.67,51.109 10.67,109.097 v 45.016 c 69.94,1.066 145.04,14.207 189.36,26.203 7.26,1.965 31.28,8.41 62.04,16.711 v -87.93 c 0,-57.988 3.55,-94.465 10.67,-109.496 7.11,-15.0194 19.61,-26.9881 37.55,-35.9608 z m -48.22,971.5708 h 84.59 c 84.82,0 146.4,-19.48 184.59,-58.497 38.18,-39.011 57.31,-99.332 57.31,-181.035 0,-56.406 -10.43,-102.097 -31.22,-137.16 -20.8,-35.058 -49.41,-59.289 -85.78,-72.73 -36.36,-13.438 -91.15,-20.157 -164.43,-20.157 h -45.06 z m -262.07,-20.95 c 7.12,-15.02 10.67,-51.5 10.67,-109.484 V 358.645 c 33.65,-0.661 76.42,4.476 132.74,18.554 39.92,9.981 81.27,22.914 118.66,35.442 v 100.422 h 70.36 l 43.17,-61.059 c 1.02,0.332 2.18,0.719 3.13,1.019 73.14,23.141 173.3,59.997 231.97,78.223 23.69,7.359 48,14.945 71.31,24.297 31.89,13.586 59.77,29.906 81.26,49.223 56.92,51.66 85.38,117 85.38,196.054 0,64.825 -18.97,121.348 -56.92,169.571 -37.94,48.219 -86.96,81.309 -147.04,99.219 -60.08,17.9 -154.95,26.87 -284.59,26.87 h -498.05 v -29.25 c 49.02,0 82.46,-4.46 100.4,-13.44 17.95,-8.97 30.44,-20.95 37.55,-35.97"
             style="fill:url(#linearGradient5694);fill-opacity:1;fill-rule:nonzero;stroke:none"
             id="path5696"
             inkscape:connector-curvature="0" /></g></g></g></g></svg>