<?xml version="1.0" encoding="UTF-8" standalone="no"?>
<!-- Created with Inkscape (http://www.inkscape.org/) -->

<svg
   xmlns:dc="http://purl.org/dc/elements/1.1/"
   xmlns:cc="http://creativecommons.org/ns#"
   xmlns:rdf="http://www.w3.org/1999/02/22-rdf-syntax-ns#"
   xmlns:svg="http://www.w3.org/2000/svg"
   xmlns="http://www.w3.org/2000/svg"
   xmlns:sodipodi="http://sodipodi.sourceforge.net/DTD/sodipodi-0.dtd"
   xmlns:inkscape="http://www.inkscape.org/namespaces/inkscape"
   width="484.86777mm"
   height="121.74474mm"
   viewBox="0 0 484.86777 121.74474"
   version="1.1"
   id="svg8"
   sodipodi:docname="rivercarelogo_black.svg"
   inkscape:version="0.92.0 r15299">
  <defs
     id="defs2">
    <mask
       maskUnits="userSpaceOnUse"
       id="mask4553">
      <path
         style="opacity:1;fill:#ffffff;fill-opacity:1;fill-rule:nonzero;stroke:none;stroke-width:0.28672194;stroke-miterlimit:4;stroke-dasharray:1.72033173, 0.28672195;stroke-dashoffset:0;stroke-opacity:1"
         d="M -323.49498,-23.457999 V 103.09758 H 170.45988 V -23.457999 Z M -17.105416,7.279659 A 32.60688,31.003266 0 0 1 15.501379,38.282936 32.60688,31.003266 0 0 1 -17.105416,69.28621 32.60688,31.003266 0 0 1 -49.712211,38.282936 32.60688,31.003266 0 0 1 -17.105416,7.279659 Z"
         id="path4555"
         inkscape:connector-curvature="0" />
    </mask>
    <filter
       style="color-interpolation-filters:sRGB"
       inkscape:label="Invert"
       id="filter4625">
      <feColorMatrix
         values="-1 0 0 0 1 0 -1 0 0 1 0 0 -1 0 1 -0.21 -0.72 -0.07 2 0 "
         result="color2"
         id="feColorMatrix4623" />
    </filter>
    <filter
       style="color-interpolation-filters:sRGB"
       inkscape:label="Blur"
       id="filter4847">
      <feGaussianBlur
         stdDeviation="0.5 0.5"
         result="blur"
         id="feGaussianBlur4845" />
    </filter>
    <clipPath
       id="clipPath3788"
       clipPathUnits="userSpaceOnUse">
      <path
         sodipodi:type="arc"
         style="opacity:0.43700789;fill:#ffffff;fill-opacity:1;fill-rule:nonzero;stroke:none"
         id="path3790"
         sodipodi:cx="126.42857"
         sodipodi:cy="1080.7142"
         sodipodi:rx="79.285713"
         sodipodi:ry="79.285713"
         d="m 205.71429,1080.7142 a 79.285713,79.285713 0 1 1 -158.57143,0 79.285713,79.285713 0 1 1 158.57143,0 z"
         transform="matrix(0.96000595,0,0,0.96000595,-438.23711,-36.165494)" />
    </clipPath>
    <clipPath
       id="clipPath3954"
       clipPathUnits="userSpaceOnUse">
      <path
         inkscape:connector-curvature="0"
         id="path3956"
         d="m -238.23616,1022.6909 c 0,42.037 -34.07775,76.1147 -76.11476,76.1147 -42.03701,0 -76.11475,-34.0777 -76.11475,-76.1147 0,-42.03713 34.07774,-76.11485 76.11475,-76.11485 42.03701,0 76.11476,34.07772 76.11476,76.11485 z"
         style="fill:#ffffff;fill-opacity:1;fill-rule:nonzero;stroke:none" />
    </clipPath>
  </defs>
  <sodipodi:namedview
     id="base"
     pagecolor="#ffffff"
     bordercolor="#666666"
     borderopacity="1.0"
     inkscape:pageopacity="0.0"
     inkscape:pageshadow="2"
     inkscape:zoom="0.49497475"
     inkscape:cx="1086.6126"
     inkscape:cy="150.9046"
     inkscape:document-units="mm"
     inkscape:current-layer="layer1"
     showgrid="false"
     inkscape:window-width="1366"
     inkscape:window-height="716"
     inkscape:window-x="-8"
     inkscape:window-y="-8"
     inkscape:window-maximized="1"
     fit-margin-top="0"
     fit-margin-left="0"
     fit-margin-right="0"
     fit-margin-bottom="0" />
  <metadata
     id="metadata5">
    <rdf:RDF>
      <cc:Work
         rdf:about="">
        <dc:format>image/svg+xml</dc:format>
        <dc:type
           rdf:resource="http://purl.org/dc/dcmitype/StillImage" />
        <dc:title></dc:title>
      </cc:Work>
    </rdf:RDF>
  </metadata>
  <g
     inkscape:label="Layer 1"
     inkscape:groupmode="layer"
     id="layer1"
     transform="translate(320.28775,23.458174)">
    <path
       style="fill:#000000;stroke-width:1.33333325;"
       d="m -51.753906,-84.814453 c -19.376587,0 -47.800653,5.128761 -70.474614,12.714844 -86.81353,29.045401 -148.63311,105.989797 -163.77343,203.841799 -3.09996,20.03194 -3.09739,59.82878 0.006,81.13476 4.84452,33.2611 12.75106,55.21747 28.30078,78.58789 25.68804,38.60776 70.96564,67.78609 115.21875,74.25196 5.5,0.80361 11.50065,1.72276 13.33398,2.04297 7.491,1.30837 40.364821,-0.5793 55.240236,-3.17188 39.569691,-6.89642 81.9852723,-27.58761 122.09375,-59.5625 25.238041,-20.12002 64.692204,-62.35746 94.158204,-100.79883 8.25107,-10.76431 9.94416,-13.77645 9.26562,-16.48047 -1.25919,-5.01658 -8.15273,-8.54939 -16.69726,-8.55468 l -7.27149,-0.006 -15.39453,15.73047 c -8.46693,8.65165 -24.896144,25.75494 -36.507809,38.00586 -23.959359,25.27837 -40.372962,39.56418 -61.552735,53.57031 -43.102811,28.50378 -86.300772,41.24124 -131.999996,38.92383 -54.37361,-2.75729 -93.42359,-29.57589 -119.41993,-82.01954 -13.58518,-27.40602 -17.93736,-48.02469 -16.79101,-79.54296 2.2274,-61.24066 29.35332,-120.942061 74.61328,-164.21094188 23.89115,-22.84008212 50.58375,-37.49989012 80.078125,-43.98046912 13.886237,-3.051174 40.214046,-3.044389 53.517578,0.01367 10.778132,2.477549 30.860834,10.092823 35.873047,13.603516 2.9541732,2.069181 7.4609375,2.567048 7.4609375,0.824219 0,-0.59522 -1.2445984,-5.844572 -2.765625,-11.666016 -7.9133865,-30.2871 -21.8548785,-43.251953 -46.5117185,-43.251953 z m -963.974594,4.076172 c -24.1479,-0.09049 -52.3453,1.350709 -66.0801,3.798828 -30.1452,5.37315 -49.7326,12.62301 -64.6309,23.923828 -4.0135,3.044451 -7.8192,5.535156 -8.455,5.535156 -0.6359,0 -2.7507,-1.905668 -4.7012,-4.234375 -18.3131,-21.86406 -25.1196,-25.321826 -33.4453,-16.996094 -4.7733,4.773238 -4.6601,3.198035 -2.1406,30.210938 4.7068,50.464201 6.0532,131.825474 3.3398,201.68555 -0.6694,17.23333 -1.6066,55.03333 -2.084,84 -0.7352,44.60919 -0.5355,55.1628 1.3028,68.98047 2.5589,19.23547 6.0844,29.60888 11.6582,34.29882 3.5958,3.02569 5.1935,3.38697 14.9238,3.38282 8.5109,-0.004 11.8481,-0.58306 15.2324,-2.64649 2.3833,-1.45315 4.3765,-2.80198 4.4316,-2.99609 0.055,-0.19412 1.4415,-41.60752 3.0801,-92.03125 2.0154,-62.01626 3.4612,-92.16232 4.4688,-93.16992 0.8192,-0.81927 2.8842,-1.13279 4.5879,-0.69727 8.7167,2.22827 59.0298,35.42897 134.1172,88.5 90.96691,64.29461 134.62438,92.2045 154.98042,99.08203 7.51812,2.54012 10.70067,2.8471 24.01367,2.31641 22.92401,-0.91383 32.64474,-6.23661 30.07618,-16.4707 -2.16779,-8.63709 -14.48576,-17.51941 -63.51368,-45.79883 -127.34407,-73.45233 -219.22909,-127.6541 -243.24219,-143.48438 -23.8031,-15.69186 -28.7766,-23.13016 -19.6426,-29.38281 9.5343,-6.52668 59.007,-25.556238 126.30862,-48.583985 42.40812,-14.510222 65.71432,-23.748536 86.48438,-34.283203 40.61582,-20.600504 59.01276,-43.0144289 51.01562,-62.154297 -10.00331,-23.941192 -64.61458,-45.090761 -133.40625,-51.664063 -7.56418,-0.722786 -17.70337,-1.079961 -28.67967,-1.121093 z m 16.11131,33.279297 c 53.06419,-0.04276 88.25457,7.103333 93.9668,19.082031 4.86754,10.207389 -2.33026,21.1254253 -22.8125,34.6054686 -37.23107,24.5030424 -123.91321,58.6086324 -178.01371,70.0410154 -14.5432,3.073255 -24.6595,4.235026 -29.0644,3.337891 -10.6438,-2.167744 -21.4277,-37.185674 -19.9063,-64.638672 0.7767,-14.01339817 2.2997,-20.068885 6.6836,-26.574219 15.0148,-22.280358 71.2181,-35.790737 149.14651,-35.853515 z m 554.35938,94.939453 c -1.52501,-0.05523 -3.06233,0.235523 -5.125,0.853515 -2.8331,0.848814 -5.52678,2.523088 -5.98633,3.720704 -0.45955,1.197611 -1.21937,42.15737 -1.6875,91.021482 l -0.84961,88.84375 4.31641,3.63281 c 5.17852,4.35743 11.5999,4.72852 19.44726,1.125 10.13575,-4.65436 9.79303,-3.15065 10.25391,-44.94726 l 0.41211,-37.42383 5.61523,-11.22656 c 15.65772,-31.31236 53.78685,-55.446528 94.79688,-60.001955 15.23185,-1.691974 17.58789,-3.196869 17.58789,-11.234375 0,-6.917344 -4.27211,-13.733832 -10.69336,-17.0625 -5.42946,-2.814531 -13.80513,-2.324175 -31.82227,1.865234 -25.23869,5.86859 -41.14442,14.614612 -64.63086,35.539063 -4.3214,3.849997 -8.28974,7 -8.82031,7 -0.53057,0 -1.34987,-5.872344 -1.82031,-13.050781 -1.43849,-21.950374 -6.50322,-33.837949 -15.94531,-37.431641 -2.01143,-0.765558 -3.52382,-1.167422 -5.04883,-1.222656 z m 730.66797,0 c -1.525,-0.05523 -3.06234,0.235523 -5.125,0.853515 -2.83307,0.848814 -5.52868,2.523088 -5.98828,3.720704 -0.4596,1.197611 -1.21742,42.15737 -1.68555,91.021482 l -0.85156,88.84375 4.31835,3.63281 c 5.17854,4.35743 11.59798,4.72852 19.44532,1.125 10.13532,-4.65436 9.7931,-3.15065 10.2539,-44.94726 l 0.41407,-37.42383 5.61328,-11.22656 c 15.65773,-31.31236 53.78688,-55.446528 94.79687,-60.001955 15.23188,-1.691974 17.58985,-3.196869 17.58985,-11.234375 0,-6.917344 -4.27217,-13.733832 -10.69336,-17.0625 -5.42948,-2.814531 -13.80519,-2.324175 -31.82227,1.865234 -25.23865,5.86859 -41.14446,14.614612 -64.63086,35.539063 -4.32146,3.849997 -8.29173,7 -8.82226,7 -0.53067,0 -1.34978,-5.872344 -1.82032,-13.050781 -1.4384,-21.950374 -6.50122,-33.837949 -15.94336,-37.431641 -2.01146,-0.765558 -3.52382,-1.167422 -5.04882,-1.222656 z m -1112.71875,1.429687 c -3.92797,0.01353 -9.12625,2.99599 -11.73829,6.982422 -5.13592,7.838438 -4.58515,10.142801 9.86719,41.353516 18.38684,39.707376 46.91949,95.582196 57.41992,112.443356 4.73919,7.60994 11.64014,17.05994 15.33399,21 5.76382,6.14803 7.41059,7.16407 11.62109,7.16407 10.14618,0 15.01501,-8.13109 40.83399,-68.19336 8.08418,-18.80616 21.6268,-49.44094 30.0957,-68.07618 8.46894,-18.635221 15.39844,-35.556851 15.39844,-37.605464 0,-4.507121 -7.16088,-12.196934 -12.64063,-13.572266 -8.71589,-2.187549 -8.07237,-3.237459 -41.36914,67.44727 -34.7619,73.79501 -34.98319,74.23265 -36.58008,72.54101 -0.62759,-0.66485 -15.97276,-30.00898 -34.09961,-65.20898 -39.60272,-76.903313 -38.59593,-75.101646 -42.54882,-76.093753 -0.49809,-0.125013 -1.03262,-0.183574 -1.59375,-0.181641 z m 272.97851,2.917969 c -41.56217,0.141763 -82.79917,31.507842 -98.73828,79.951175 -5.5067,16.73645 -7.04984,27.37601 -6.52539,45 0.41299,13.87877 0.80844,15.87224 4.71484,23.77734 9.56618,19.35822 30.88572,32.95469 58.40235,37.24414 11.64189,1.8148 35.61231,0.58827 51.50976,-2.63672 15.82046,-3.20937 33.62723,-9.89597 47.15821,-17.70703 10.51819,-6.07187 28.66601,-23.29333 28.66601,-27.20312 0,-4.1812 -10.08709,-12.40039 -15.21875,-12.40039 -1.13333,0 -5.22302,2.4058 -9.08789,5.34765 -25.13544,19.13256 -71.17042,31.56161 -99.10351,26.75586 -17.35798,-2.98635 -27.98893,-9.63077 -34.65235,-21.66015 -3.62604,-6.54594 -3.9375,-8.16832 -3.9375,-20.44336 0,-12.61598 2.82983,-26.04116 5.88867,-27.93164 0.56055,-0.34644 18.3664,-1.26248 39.56641,-2.03516 63.08247,-2.29914 82.3114,-4.46286 95.73242,-10.77149 8.55243,-4.02009 10.5135,-7.4081 10.61328,-18.33398 0.0616,-6.72199 -0.67803,-10.520126 -2.96679,-15.248047 -6.59547,-13.624411 -23.43772,-28.352562 -40.58789,-35.492187 -10.22284,-4.255775 -20.83932,-6.249027 -31.4336,-6.212891 z m 1082.66602,0 c -41.56216,0.141763 -82.79921,31.507842 -98.73828,79.951175 -5.5067,16.73645 -7.0498,27.37601 -6.52539,45 0.41291,13.87877 0.80843,15.87224 4.71484,23.77734 9.56625,19.35822 30.88763,32.95469 58.4043,37.24414 11.64185,1.8148 35.61036,0.58827 51.50781,-2.63672 15.82053,-3.20937 33.62727,-9.89597 47.1582,-17.70703 10.51812,-6.07187 28.66602,-23.29333 28.66602,-27.20312 0,-4.1812 -10.08702,-12.40039 -15.21875,-12.40039 -1.13333,0 -5.2231,2.4058 -9.08789,5.34765 -25.13545,19.13256 -71.17043,31.56161 -99.10352,26.75586 -17.35797,-2.98635 -27.98704,-9.63077 -34.65039,-21.66015 -3.62608,-6.54594 -3.93945,-8.16832 -3.93945,-20.44336 0,-12.61598 2.83181,-26.04116 5.89062,-27.93164 0.56054,-0.34644 18.36429,-1.26248 39.56446,-2.03516 63.08239,-2.29914 82.31135,-4.46286 95.73242,-10.77149 8.55243,-4.02009 10.51312,-7.4081 10.61328,-18.33398 0.0616,-6.72199 -0.67608,-10.520126 -2.96484,-15.248047 -6.59547,-13.624411 -23.43971,-28.352562 -40.58985,-35.492187 -10.22282,-4.255775 -20.83932,-6.249027 -31.43359,-6.212891 z m -321.19336,1.033203 c -9.70945,-0.141566 -18.40477,1.540984 -29.95117,5.509766 C 119.24634,78.288157 68.650286,145.17931 72.783203,196.40625 c 0.871801,10.80593 4.572818,22.7793 7.041016,22.7793 1.042907,0 12.171471,-11.1473 18.634765,-18.66602 2.531336,-2.94478 2.723206,-4.08764 1.644536,-9.8125 -6.042002,-32.06751 39.33327,-90.22189 81.98046,-105.068358 18.8996,-6.579371 33.51635,-4.618357 38.58008,5.173828 10.4556,20.21912 -8.44873,66.75556 -38.55859,94.92188 -10.13627,9.48204 -17.78805,14.86806 -29.17578,20.53906 -6.7068,3.33992 -10.11286,6.2387 -15.95899,13.58008 -9.70826,12.19121 -9.66245,13.26196 0.50782,12.11132 30.30786,-3.42894 58.39196,-19.14231 78.92382,-44.1582 4.49267,-5.474 8.68397,-9.95312 9.3125,-9.95312 0.62867,0 1.14258,10.60964 1.14258,23.57812 0,26.18434 1.4313,32.05583 8.95703,36.71875 4.5512,2.81995 7.15242,2.91641 12.98243,0.48047 7.76332,-3.24372 9.06082,-6.69153 7.4375,-19.75586 -0.77067,-6.20176 -1.96368,-34.31911 -2.65235,-62.48242 C 252.1483,97.752384 250.81535,86.63796 243.41016,71.476562 237.17536,58.711548 232.36283,55.41092 217.33203,53.59375 213.7274,53.15797 210.37906,52.908517 207.14258,52.861328 Z m -1084.82227,4.978516 c -5.02356,-0.01518 -10.10311,0.519129 -11.19726,1.613281 -1.2104,1.210375 -1.59961,21.928199 -1.59961,85.078125 0,87.96879 -0.14926,85.75185 6,89.11523 3.60778,1.9733 15.25305,1.88456 19.20508,-0.14648 1.76265,-0.90585 4.36843,-3.2161 5.79101,-5.13281 2.4974,-3.36489 2.53505,-4.67366 1.0918,-38 -1.51767,-35.04514 -4.74478,-95.344338 -6.27149,-117.181643 -0.4614,-6.6 -1.43295,-12.749348 -2.1582,-13.666016 -0.87033,-1.100088 -5.83777,-1.664503 -10.86133,-1.679687 z m 328.12305,22.824218 c 15.48367,0.09241 27.82362,5.833329 33.19922,16.123047 4.13306,7.911321 3.25668,8.619341 -11.78516,9.521481 -7.51665,0.45082 -24.76729,1.15191 -38.33398,1.5586 -13.56665,0.40669 -27.81925,1.06331 -31.67188,1.45898 -5.45847,0.56059 -7.17376,0.28105 -7.76953,-1.27148 -2.86114,-7.45604 17.76752,-20.647111 39.97266,-25.560549 5.71841,-1.265344 11.22745,-1.860881 16.38867,-1.830079 z m 1082.66797,0 c 15.48364,0.09241 27.82164,5.833329 33.19726,16.123047 4.13307,7.911321 3.25669,8.619341 -11.78515,9.521481 -7.51669,0.45082 -24.76538,1.15191 -38.33203,1.5586 -13.56669,0.40669 -27.81918,1.06331 -31.67188,1.45898 -5.45851,0.56059 -7.1738,0.28105 -7.76953,-1.27148 -2.86122,-7.45604 17.76549,-20.647111 39.9707,-25.560549 5.7184,-1.265344 11.22941,-1.860881 16.39063,-1.830079 z"
       id="path4635"
       transform="scale(0.26458333)"
       inkscape:connector-curvature="0" />
    <g
       transform="matrix(0.34973481,0,0,0.34973481,-547.75784,-359.30936)"
       id="layer1-3"
       inkscape:label="Layer 1">
      <g
         transform="translate(1826.4322,109.02922)"
         clip-path="url(#clipPath3954)"
         id="g3944">
        <path
           id="rect3802"
           d="m -403.08615,945.62567 h 172.32143 v 90.17853 h -172.32143 z"
           style="fill:#b1d5ea;fill-opacity:1;fill-rule:nonzero;stroke:none"
           inkscape:connector-curvature="0" />
        <path
           id="path3844"
           d="m -226.05814,964.03403 c 0,15.96965 -12.94596,28.91561 -28.91562,28.91561 -15.96965,0 -28.91561,-12.94596 -28.91561,-28.91561 0,-15.96966 12.94596,-28.91562 28.91561,-28.91562 15.96966,0 28.91562,12.94596 28.91562,28.91562 z"
           style="fill:#cae3f2;fill-opacity:1;fill-rule:nonzero;stroke:none"
           inkscape:connector-curvature="0" />
        <path
           style="fill:#83b93c;fill-opacity:1;stroke:none"
           d="m -394.24822,1097.1362 c -3.78807,-34.5977 -27.27412,-105.30854 -15.40483,-107.07632 11.8693,-1.7677 3.53554,-2.0203 30.55712,-2.5253 27.02158,-0.5051 104.04571,0.505 134.09775,4.79818 30.05204,4.2931 38.3858,20.70814 38.3858,20.70814 -0.25254,94.7019 -2.77792,90.4088 -2.77792,90.4088 l -79.29698,2.2728"
           id="path3798"
           inkscape:connector-curvature="0" />
        <path
           style="fill:#b5da57;fill-opacity:1;stroke:none"
           d="m -321.10485,1023.2518 c -1.78572,2.1429 0.0913,2.3883 0.87583,3.088 3.02136,2.6947 30.53572,12.5 37.14286,15.8929 6.60714,3.3928 50,18.9285 54.64286,20.5357 4.64286,1.6071 1.60714,19.6428 -1.60714,19.2857 -3.21429,-0.3571 -39.28572,-9.8214 -39.28572,-9.8214 0,0 -60,-38.3929 -60.17857,-40.1786 -0.17857,-1.7857 -0.89286,-10.7143 0,-10.7143 0.89286,0 8.40988,1.912 8.40988,1.912 z"
           id="path3822"
           inkscape:connector-curvature="0"
           sodipodi:nodetypes="csccscssc" />
        <path
           style="fill:#499c1a;fill-opacity:1;stroke:none"
           d="m -340.76473,1018.1032 c -2.09821,1.8974 -3.413,2.5746 -4.57589,5.3348 -0.92686,2.1999 0.17857,11.2054 1.69643,13.4375 1.51785,2.2321 20.60268,28.4375 23.37053,32.2768 3.75,5 37.54465,36.7411 38.88393,37.4554 1.33929,0.7143 8.03572,-7.0536 8.03572,-7.0536 0,0 -26.51786,-29.9107 -26.78572,-30.5357 -0.26786,-0.625 -34.64286,-36.25 -35.89286,-36.6964 -1.25,-0.4465 -2.62294,-7.4762 -2.62294,-8.5495 0,-1.0733 -0.36468,-6.3578 -0.36468,-6.3578 z"
           id="path3828"
           inkscape:connector-curvature="0"
           sodipodi:nodetypes="csscscscscc" />
        <path
           style="fill:#b5da57;fill-opacity:1;stroke:none"
           d="m -290.92582,1009.6935 c 1.07329,0.8207 3.03046,1.0417 3.21986,2.6201 0.18941,1.5784 -2.74635,1.4521 -4.38785,1.9571 -1.6415,0.5051 -25.75889,0.221 -28.88405,0.3789 -3.53552,0.1578 -15.9099,1.61 -18.43528,2.9042 -2.62008,1.3257 -4.00904,5.2401 -4.13531,6.124 -0.12627,0.8838 2.05187,2.336 2.05187,2.336 l 15.15229,-3.5987 c 0,0 37.37564,-5.3033 38.44893,-5.3033 1.07329,0 14.52094,-0.3157 14.64721,-0.6313 0.12627,-0.3157 -1.76776,-6.5029 -1.76776,-6.5029 0,0 -16.47812,-2.0834 -16.16245,-1.8309 0.31568,0.2525 0.25254,1.5468 0.25254,1.5468 z"
           id="path3824"
           inkscape:connector-curvature="0"
           sodipodi:nodetypes="csccccccscccc" />
        <path
           sodipodi:nodetypes="cscccccccccc"
           style="fill:#b5da57;fill-opacity:1;stroke:none"
           d="m -262.39984,1014.3289 c -0.31567,-1.9571 0.39663,-4.0327 -2.00947,-5.614 -2.10647,-1.3843 -11.36422,-2.3991 -17.74081,-3.2198 -6.37659,-0.8208 -67.23828,-5.55586 -70.52127,-5.68206 -3.283,-0.1263 -39.83789,-1.0102 -45.3306,-1.2627 -5.4927,-0.2526 -7.70241,0.2525 -7.70241,0.2525 l 10.48033,1.26266 24.36993,1.3889 44.95179,3.4724 44.69925,5.1771 13.00571,5.0507 z"
           id="path3826"
           inkscape:connector-curvature="0" />
        <path
           style="fill:#3e8788;fill-opacity:1;stroke:none"
           d="m -393.86942,999.65636 c 0,0 24.63854,0.88474 36.99684,1.51524 12.37437,0.6313 45.58313,3.5355 54.2957,4.5457 4.01372,0.4654 22.34962,2.1465 30.55711,3.283 4.04061,0.7576 9.71302,1.4368 9.59645,5.0507 -0.12626,3.9144 -2.14658,6.8186 -13.25826,7.3237 -11.11167,0.5051 -36.99683,1.1364 -43.05774,1.5152 -5.80838,0.4419 -6.90613,4.5581 -5.36644,5.7452 2.73335,2.1073 53.79063,23.7385 61.11423,26.2639 7.32361,2.5254 15.7205,5.3665 24.05426,7.3868 8.33376,2.0203 -6.81853,25.7589 -10.10153,29.547 -3.28299,3.788 -40.91118,18.6878 -40.91118,16.6675 0,-2.0203 19.07348,0.685 2.27285,-15.9099 -18.79653,-18.5663 -20.70571,-20.3859 -36.11296,-37.3757 -3.26318,-3.5984 -15.53109,-19.698 -17.29886,-22.2233 -1.26269,-1.7678 -2.94823,-5.8069 -2.77792,-8.0812 0.18651,-2.4905 4.35629,-6.2504 9.97526,-7.1343 8.75816,-1.3777 16.16244,-1.1364 26.5165,-1.2627 6.58243,-0.2458 20.41309,0.7247 24.24366,-2.0834 0.58029,-1.1368 1.13928,-1.8589 -6.31345,-4.2931 -6.05537,-1.9778 -59.97781,-6.0609 -66.67007,-6.566 -6.69226,-0.5051 -37.1231,-2.7779 -39.01714,-3.1567 -1.89403,-0.3788 1.26269,-0.75764 1.26269,-0.75764 z"
           id="path3800"
           inkscape:connector-curvature="0"
           sodipodi:nodetypes="csscsscssssssscssccsssc" />
      </g>
    </g>
  </g>
</svg>
