<?xml version="1.0" encoding="UTF-8" standalone="no"?>
<!-- Created with Inkscape (http://www.inkscape.org/) -->

<svg
   xmlns:dc="http://purl.org/dc/elements/1.1/"
   xmlns:cc="http://creativecommons.org/ns#"
   xmlns:rdf="http://www.w3.org/1999/02/22-rdf-syntax-ns#"
   xmlns:svg="http://www.w3.org/2000/svg"
   xmlns="http://www.w3.org/2000/svg"
   xmlns:sodipodi="http://sodipodi.sourceforge.net/DTD/sodipodi-0.dtd"
   xmlns:inkscape="http://www.inkscape.org/namespaces/inkscape"
   width="297.86353mm"
   height="50.825058mm"
   viewBox="0 0 297.86353 50.825058"
   version="1.1"
   id="svg8"
   inkscape:version="0.92.0 r15299"
   sodipodi:docname="waal_outline.svg">
  <defs
     id="defs2" />
  <sodipodi:namedview
     id="base"
     pagecolor="#ffffff"
     bordercolor="#666666"
     borderopacity="1.0"
     inkscape:pageopacity="0.0"
     inkscape:pageshadow="2"
     inkscape:zoom="0.98994949"
     inkscape:cx="503.725"
     inkscape:cy="163.4997"
     inkscape:document-units="mm"
     inkscape:current-layer="layer1"
     showgrid="false"
     fit-margin-top="0"
     fit-margin-left="0"
     fit-margin-right="0"
     fit-margin-bottom="0"
     inkscape:window-width="1920"
     inkscape:window-height="1148"
     inkscape:window-x="-8"
     inkscape:window-y="-8"
     inkscape:window-maximized="1" />
  <metadata
     id="metadata5">
    <rdf:RDF>
      <cc:Work
         rdf:about="">
        <dc:format>image/svg+xml</dc:format>
        <dc:type
           rdf:resource="http://purl.org/dc/dcmitype/StillImage" />
        <dc:title></dc:title>
      </cc:Work>
    </rdf:RDF>
  </metadata>
  <g
     inkscape:label="Layer 1"
     inkscape:groupmode="layer"
     id="layer1"
     transform="translate(74.075967,-80.500251)">
    <path
       style="fill:#666666;fill-rule:evenodd;stroke:#000000;stroke-width:0.26458332px;stroke-linecap:butt;stroke-linejoin:miter;stroke-opacity:1"
       d="m 221.70007,89.99975 c -2.93996,0.133633 -3.40769,0.601356 -4.34313,1.069078 -0.93544,0.46772 -1.67044,1.135896 -2.20497,1.870887 -0.53454,0.734992 -0.53454,1.336347 -1.73725,1.737252 -1.20272,0.400904 -1.73726,0.534538 -3.00679,0.400904 -1.26953,-0.133635 -3.8754,2.472243 -4.40994,2.873148 -0.53454,0.400902 -4.00905,0.267269 -4.47677,-0.334087 -0.46772,-0.601358 -1.5368,-3.808592 -4.20949,-4.944488 -2.6727,-1.135896 -0.66818,-1.269529 -4.07586,-1.469983 -3.40769,-0.200451 -4.74404,-0.334086 -5.61266,1.469983 -0.86863,1.804069 -1.80407,6.147199 -2.07134,6.68174 -0.26727,0.534537 -2.13816,2.472246 -3.0736,2.739516 -0.93544,0.26726 -4.27631,1.67043 -5.14494,-0.20046 -0.86863,-1.87088 -4.2095,-4.610397 -4.2095,-4.610397 0,0 -0.93544,-1.804067 -3.40768,-1.870885 -2.47224,-0.06682 -4.00904,0 -4.94449,-0.935445 -0.93544,-0.935442 -3.60814,0.133636 -4.81085,-1.469982 -1.20271,-1.603616 -0.13364,-1.737252 -1.67043,-1.937703 -1.5368,-0.200453 -1.40317,-1.269532 -3.54133,-0.935445 -2.13815,0.334087 -2.20497,1.737254 -3.60814,0.801809 -1.40316,-0.935442 -0.86862,-0.868624 -3.67495,-1.469982 -2.80633,-0.601356 -5.27857,-1.135896 -8.61944,-2.539061 -3.34087,-1.403165 -1.87089,-2.00452 -5.14494,-3.541321 -3.27405,-1.536798 -4.94449,-2.138156 -7.14946,-1.135896 -2.20497,1.002263 -2.27179,2.806332 -5.94675,1.737254 -3.67495,-1.069078 -2.87314,-1.069078 -4.6104,-2.204974 -1.73725,-1.135896 -2.3386,-1.336349 -5.4122,-1.002262 -3.0736,0.334089 -3.14042,-0.400902 -4.81086,1.269531 -1.67043,1.670434 -4.74403,1.069078 -8.018082,1.202714 -3.27405,0.133633 -4.276313,2.338607 -8.418989,2.338607 -4.142679,0 -4.87767,-0.334087 -7.349913,-0.200451 -2.472243,0.133633 -7.14946,2.204971 -8.753076,4.009041 -1.603618,1.804069 -1.5368,3.006783 -3.073601,4.276315 -1.536798,1.269529 -3.474503,1.603615 -4.142676,2.739511 -0.668174,1.135896 -0.334087,2.405425 -0.668174,3.942222 -0.334086,1.5368 -1.469982,4.47677 -1.870887,5.47903 -0.400904,1.00226 0.400905,2.67269 -2.539061,2.80633 -2.939965,0.13363 -4.476763,0.93544 -4.810852,1.60362 -0.334087,0.66817 -0.400902,1.00226 -0.400902,3.00678 0,2.00452 0.868624,2.33861 0,3.27405 -0.868627,0.93544 -1.135896,-0.60136 -1.870887,1.67043 -0.734992,2.2718 -0.334087,3.60814 -1.603619,3.74178 -1.269529,0.13363 -2.939965,1.00226 -3.808589,0.33409 -0.868627,-0.66818 -2.004523,-0.20046 -1.403165,-2.07134 0.601355,-1.87089 1.870887,-1.26953 0.334087,-2.47225 -1.536801,-1.20271 -2.539061,-0.80181 -4.209495,-1.9377 -1.670436,-1.1359 -1.135896,-0.73499 -4.009043,-0.46772 -2.873148,0.26727 -3.608139,2.33861 -4.877671,0.60135 -1.269529,-1.73725 -0.06681,-3.14041 -2.873147,-2.27179 -2.80633,0.86863 -3.741772,0 -6.815372,1.73725 -3.073599,1.73726 -0.601356,2.73952 -4.409947,2.80633 -3.808591,0.0668 -3.608138,-1.5368 -5.479025,-0.33408 -1.870887,1.20271 -3.826834,-1.01526 -5.5114506,-2.34614 -2.9293155,0.18899 -4.8357465,1.29443 -9.39554103,3.09456 -4.00129007,1.57965 -6.94229227,-1.95114 -11.28542137,-2.61931 -4.34313,-0.66817 -3.474504,-1.33635 -8.485808,-1.40316 -5.011304,-0.0668 -2.338608,0.73499 -5.545843,1.67043 -3.207234,0.93544 -4.476763,1.33635 -6.1472,0.93544 -1.670433,-0.4009 -5.412208,0.33409 -7.149459,-0.13363 -1.737252,-0.46772 -2.80633,-1.26953 -5.34539,-1.73725 -2.539061,-0.46773 -3.407686,0.93544 -4.476764,0.73499 -1.069078,-0.20045 -5.612661,-2.13816 -5.612661,-2.13816 0,0 -1.00226,-1.06908 -2.80633,-1.80407 -1.804069,-0.73499 -5.813113,-1.60361 -6.147199,-1.13589 -0.334087,0.46772 0.668173,2.00452 -1.536798,3.14042 -2.204974,1.13589 -5.946749,3.67495 -7.082645,3.94222 -1.135895,0.26727 -2.071338,0.46772 -2.071338,0.46772 l 2.004523,5.54584 c 0,0 -0.400904,-2.00452 2.405425,-2.87314 2.80633,-0.86863 0.200451,-2.6727 4.610399,-2.93997 4.409948,-0.26727 7.817633,-0.93544 9.354434,-0.26727 1.5368,0.66818 2.939965,2.53906 5.679477,2.87315 2.739511,0.33409 5.144939,-0.33409 7.149459,-0.53454 2.004521,-0.20045 1.870888,0.53454 3.474503,2.33861 1.603619,1.80407 1.469983,2.73951 4.810853,4.27631 3.34087,1.5368 4.075861,3.74177 5.078121,3.74177 1.00226,0 2.138156,-1.53679 2.138156,-2.87314 0,-1.33635 0.200451,-4.00905 0.935443,-5.01131 0.734991,-1.00226 2.138156,-0.66817 3.140417,-2.00452 1.002261,-1.33634 0.200452,-2.93996 2.138156,-3.20723 1.937704,-0.26727 1.870887,0.33409 4.543582,1.60361 2.672696,1.26954 4.276313,3.07361 6.013565,3.67496 1.7372514,0.60136 3.6749555,-0.20045 4.0758598,-0.4009 0.4009043,-0.20045 -0.4677217,-0.0668 3.4745038,0.53454 3.9422255,0.60135 5.4122079,0.33408 5.9467469,-0.13364 0.534539,-0.46772 -1.0022607,-1.80407 1.8040693,-1.20271 2.8063301,0.60136 1.4031651,2.47224 3.2740518,3.00678 1.8708864,0.53454 2.0713384,1.67043 4.2763124,0.60136 2.204973,-1.06908 3.207234,-2.40543 6.414469,-2.47225 3.207234,-0.0668 2.338608,-0.86862 3.741773,-1.67043 1.403165,-0.80181 2.138156,-0.0668 3.474504,-0.13364 1.336348,-0.0668 0.534539,-1.00226 2.672695,-1.20271 2.138156,-0.20045 2.939966,-1.40316 2.672694,0.53454 -0.267269,1.93771 -1.336347,2.87315 -0.267269,3.54132 1.069078,0.66817 1.069078,2.07134 2.739514,2.13816 1.670434,0.0668 3.80859,-1.33635 4.610399,-2.40543 0.801807,-1.06908 1.403165,-2.53906 2.27179,-2.53906 0.868627,0 0.668173,0.80181 2.605878,2.73951 1.937705,1.93771 2.539061,3.60814 4.810853,3.94223 2.271789,0.33409 3.407685,-0.86863 4.142676,-1.33635 0.734991,-0.46772 2.071338,-0.66817 2.672697,-1.60361 0.601355,-0.93545 6.949006,-11.69305 9.087162,-13.22985 2.138156,-1.5368 3.674956,-6.48128 4.209497,-7.684 0.534537,-1.20271 2.672693,-2.93996 3.207234,-3.27405 0.534538,-0.33408 -0.06682,-2.204971 0.133633,-2.672691 0.200454,-0.467723 0.133636,-0.467723 2.271792,-1.870887 2.138156,-1.403165 0.400904,-2.071339 3.608139,-2.539061 3.207234,-0.467723 8.018084,-2.004523 10.289875,-2.271792 2.271792,-0.267269 1.80407,0.06682 6.481287,-0.334087 4.677216,-0.400904 3.875407,0.06682 8.753075,-1.00226 4.87767,-1.069078 7.684,-3.006783 10.7576,-2.739511 3.0736,0.267268 3.94223,2.071338 5.21176,2.53906 1.26953,0.46772 3.4745,1.135894 4.81085,0.534538 1.33634,-0.601356 2.02793,1.063675 3.86984,0.463789 0.85045,-1.511905 4.01379,-2.205788 6.968,-0.587927 1.35933,0.744429 3.39426,0.725494 5.4656,1.928207 2.07134,1.202714 2.20497,1.80407 4.87767,1.937705 2.67269,0.133634 6.28083,0.534538 8.15172,0.601356 1.87089,0.06682 2.87315,0 5.81311,1.536801 2.93996,1.536797 2.20497,3.073598 5.61266,4.34313 3.40769,1.26953 4.81085,0 5.14494,1.67043 0.33409,1.67044 -1.80407,1.80407 0.4009,2.33861 2.20497,0.53454 1.93771,-0.60136 4.14268,-0.33409 2.20497,0.26728 2.80633,1.33635 5.47903,2.20498 2.67269,0.86862 5.74629,0.93544 7.75081,-0.26727 2.00452,-1.20272 1.93771,1.60361 2.6727,-2.6727 0.73499,-4.27631 -2.53906,-5.946744 0.73499,-5.27857 3.27405,0.668173 3.14042,1.403165 4.6104,2.00452 1.46998,0.60136 4.74403,1.87089 6.1472,3.00678 1.40316,1.1359 3.54132,2.60588 4.54358,2.93997 1.00226,0.33409 3.20723,1.33635 4.81085,0.26727 1.60362,-1.06908 0.13363,-1.87089 3.34087,-3.94223 3.20723,-2.07134 1.40316,-1.9377 4.34313,-2.472241 2.93996,-0.534537 4.94448,-1.937705 4.94448,-1.937705 z"
       id="path4496"
       inkscape:connector-curvature="0"
       sodipodi:nodetypes="ccccscccccccccscssscssscscscsscssscsccscscccccsccccccsscscscscsccscccscsscsssscsccscsssccscscsccscsscsscssssssccccsssccscscccssccsscscc" />
  </g>
</svg>
